<svg id="Capa_1" data-name="Capa 1" xmlns="http://www.w3.org/2000/svg" viewBox="0 0 444.1518 288.2149">
  <defs>
    <style>
      .cls-1 {
        fill: #b55656;
      }
      .cls-2{
        fill: #94474b;
      }
    </style>
  </defs>
  <title>original-ab-bg</title>
  <rect class="cls-2" x="238.5978" width="45.3251" height="288.2149" rx="1.3963"/>
  <path class="cls-1" d="M131.1491,188.1671a102.7759,102.7759,0,1,0,0,205.5518H233.9274V290.9407A102.7777,102.7777,0,0,0,131.1491,188.1671ZM188.6,348.3962h-57.451a57.4177,57.4177,0,0,1-57.4509-57.4555,58.24,58.24,0,0,1,.3363-6.2663,57.1366,57.1366,0,0,1,12.3236-29.7092,56.0893,56.0893,0,0,1,4.1669-4.6486A57.451,57.451,0,0,1,188.6,290.9407Z" transform="translate(-28.371 -105.5042)"/>
  <path class="cls-1" d="M369.7458,188.1651h0A102.7768,102.7768,0,0,0,266.9687,290.9419V393.719H369.7458A102.7769,102.7769,0,0,0,472.5227,290.9421v0A102.7768,102.7768,0,0,0,369.7458,188.1651Zm57.4518,102.777a57.4519,57.4519,0,0,1-57.4518,57.4519h-57.452V290.942A57.4518,57.4518,0,0,1,369.7457,233.49h0a57.4519,57.4519,0,0,1,57.4518,57.4519Z" transform="translate(-28.371 -105.5042)"/>
</svg>
