<svg xmlns="http://www.w3.org/2000/svg" viewBox="0 0 373.0272 95.3739">
  <defs>
    <style>
      .cls-1 {
        fill: #bbbbba;
      }

      .cls-2 {
        fill: #ececec;
      }

      .cls-3, .cls-5 {
        fill: #fff;
      }

      .cls-4 {
        fill: none;
      }

      .cls-4, .cls-5 {
        stroke: #fff;
        stroke-miterlimit: 10;
      }
    </style>
  </defs>
  <title>proABly-new</title>
  <g id="Capa_2" data-name="Capa 2">
    <g>
      <rect class="cls-1" x="253.5929" y="6.5691" width="10.0863" height="64.1372" rx="1.3963"/>
      <path class="cls-2" d="M282.3823,200.5123a22.871,22.871,0,1,0,0,45.742h22.8715V223.3828A22.8714,22.8714,0,0,0,282.3823,200.5123Zm12.7847,35.6562H282.3823a12.7773,12.7773,0,0,1-12.7847-12.7857,12.9766,12.9766,0,0,1,.0748-1.3945,12.7149,12.7149,0,0,1,2.7424-6.6112,12.4887,12.4887,0,0,1,.9273-1.0345,12.7847,12.7847,0,0,1,21.8249,9.04Z" transform="translate(-59.0137 -175.548)"/>
      <path class="cls-2" d="M335.4779,200.5119h0a22.8712,22.8712,0,0,0-22.8712,22.8712v22.8712h22.8713a22.8712,22.8712,0,0,0,22.8712-22.8712h0A22.8712,22.8712,0,0,0,335.4779,200.5119Zm12.7849,22.8712a12.7849,12.7849,0,0,1-12.7849,12.7849h-12.785V223.3831a12.7849,12.7849,0,0,1,12.7849-12.7849h0a12.7849,12.7849,0,0,1,12.7849,12.7849Z" transform="translate(-59.0137 -175.548)"/>
    </g>
    <g>
      <g>
        <path class="cls-3" d="M82.8335,199.8865a22.3664,22.3664,0,0,1,9.064,1.8477,23.75,23.75,0,0,1,12.4082,12.4082,23.1567,23.1567,0,0,1,0,18.1279,23.7547,23.7547,0,0,1-12.4082,12.4082,22.3747,22.3747,0,0,1-9.064,1.8477,22.0806,22.0806,0,0,1-7.6558-1.32,24.7871,24.7871,0,0,1-6.6-3.6074v28.8235H59.5137V223.2058a22.831,22.831,0,0,1,1.8037-9.0634A23.2546,23.2546,0,0,1,66.29,206.75a23.7335,23.7335,0,0,1,7.436-5.0161A22.67,22.67,0,0,1,82.8335,199.8865Zm0,37.5762a13.4749,13.4749,0,0,0,5.5-1.1445,14.6187,14.6187,0,0,0,7.6118-7.6124,13.79,13.79,0,0,0,0-10.999,14.6175,14.6175,0,0,0-7.6118-7.6128,13.5052,13.5052,0,0,0-5.5-1.1435,13.7111,13.7111,0,0,0-5.5879,1.1435,14.7732,14.7732,0,0,0-4.5322,3.08,14.1383,14.1383,0,0,0-3.0357,4.5327,13.9308,13.9308,0,0,0-1.1,5.499v.0889a13.4808,13.4808,0,0,0,1.1441,5.5,14.708,14.708,0,0,0,3.08,4.5313,14.1051,14.1051,0,0,0,4.5317,3.0361A13.9307,13.9307,0,0,0,82.8335,237.4627Z" transform="translate(-59.0137 -175.548)"/>
        <path class="cls-4" d="M82.8335,199.8865a22.3664,22.3664,0,0,1,9.064,1.8477,23.75,23.75,0,0,1,12.4082,12.4082,23.1567,23.1567,0,0,1,0,18.1279,23.7547,23.7547,0,0,1-12.4082,12.4082,22.3747,22.3747,0,0,1-9.064,1.8477,22.0806,22.0806,0,0,1-7.6558-1.32,24.7871,24.7871,0,0,1-6.6-3.6074v28.8235H59.5137V223.2058a22.831,22.831,0,0,1,1.8037-9.0634A23.2546,23.2546,0,0,1,66.29,206.75a23.7335,23.7335,0,0,1,7.436-5.0161A22.67,22.67,0,0,1,82.8335,199.8865Zm0,37.5762a13.4749,13.4749,0,0,0,5.5-1.1445,14.6187,14.6187,0,0,0,7.6118-7.6124,13.79,13.79,0,0,0,0-10.999,14.6175,14.6175,0,0,0-7.6118-7.6128,13.5052,13.5052,0,0,0-5.5-1.1435,13.7111,13.7111,0,0,0-5.5879,1.1435,14.7732,14.7732,0,0,0-4.5322,3.08,14.1383,14.1383,0,0,0-3.0357,4.5327,13.9308,13.9308,0,0,0-1.1,5.499v.0889a13.4808,13.4808,0,0,0,1.1441,5.5,14.708,14.708,0,0,0,3.08,4.5313,14.1051,14.1051,0,0,0,4.5317,3.0361A13.9307,13.9307,0,0,0,82.8335,237.4627Z" transform="translate(-59.0137 -175.548)"/>
      </g>
      <path class="cls-5" d="M143.9808,203.4462a19.1938,19.1938,0,0,1,5.104,4.8868l-5.104,4.0561-1.936,1.5845a11.0747,11.0747,0,0,0-3.916-3.52,11.0283,11.0283,0,0,0-9.5479-.44,11.1479,11.1479,0,0,0-5.896,5.896,10.6993,10.6993,0,0,0-.88,4.3125v26.1358h-9.0639V200.0693h9.0639v3.3769a20.0651,20.0651,0,0,1,5.1919-2.4873,19.9833,19.9833,0,0,1,11.792,0A20.0869,20.0869,0,0,1,143.9808,203.4462Z" transform="translate(-59.0137 -175.548)"/>
      <path class="cls-5" d="M177.1983,199.9814a22.8546,22.8546,0,0,1,9.0639,1.8037,23.188,23.188,0,0,1,12.3638,12.3643,23.67,23.67,0,0,1,0,18.1279,23.1924,23.1924,0,0,1-12.3638,12.3643,23.6759,23.6759,0,0,1-18.1279,0A23.1956,23.1956,0,0,1,155.77,232.2773a23.6759,23.6759,0,0,1,0-18.1279,23.1911,23.1911,0,0,1,12.3643-12.3643A22.85,22.85,0,0,1,177.1983,199.9814Zm.0439,37.3994a13.85,13.85,0,0,0,5.4819-1.1,14.1781,14.1781,0,0,0,0-26.1357,14.2122,14.2122,0,0,0-10.9653,0,14.1275,14.1275,0,0,0-4.5185,3.0356,14.7767,14.7767,0,0,0-3.07,4.5327,13.84,13.84,0,0,0,0,10.999,14.745,14.745,0,0,0,3.07,4.5323,14.08,14.08,0,0,0,4.5185,3.0361A13.8473,13.8473,0,0,0,177.2422,237.3808Z" transform="translate(-59.0137 -175.548)"/>
      <path class="cls-5" d="M230.1876,200.1125a22.8451,22.8451,0,0,1,9.0644,1.8042A23.1918,23.1918,0,0,1,251.6163,214.28a23.6762,23.6762,0,0,1,0,18.128,23.1994,23.1994,0,0,1-12.3643,12.3642,23.6759,23.6759,0,0,1-18.1279,0A23.19,23.19,0,0,1,208.76,232.4084a22.8248,22.8248,0,0,1-1.8037-9.0635V176.048H216.02l-.0879,28.9043a23.931,23.931,0,0,1,6.6006-3.564A22.8124,22.8124,0,0,1,230.1876,200.1125Zm.0439,37.4a13.8535,13.8535,0,0,0,5.4824-1.1006,14.1787,14.1787,0,0,0,0-26.1358,14.2134,14.2134,0,0,0-10.9658,0,14.1247,14.1247,0,0,0-4.5176,3.0362,14.9079,14.9079,0,0,0-3.07,4.4882,13.2136,13.2136,0,0,0-1.1406,5.4551v.0889a13.5192,13.5192,0,0,0,1.1406,5.5,14.7227,14.7227,0,0,0,3.07,4.5312,14.0776,14.0776,0,0,0,4.5176,3.0362A13.8552,13.8552,0,0,0,230.2315,237.5129Z" transform="translate(-59.0137 -175.548)"/>
      <path class="cls-5" d="M364.356,176.2677H373.42V246.092H364.356Z" transform="translate(-59.0137 -175.548)"/>
      <path class="cls-5" d="M431.2446,200.2443l-20.416,42.3281-5.3672,11.1758-8.0033,16.6737H386.9854l13.5473-28.1131-18.4795-42.0645h10.2959l13.5517,30.8877,14.8721-30.8877Z" transform="translate(-59.0137 -175.548)"/>
    </g>
  </g>
</svg>
