<svg id="Capa_1" data-name="Capa 1" xmlns="http://www.w3.org/2000/svg" viewBox="0 0 500 174.2106">
  <defs>
    <style>
      .cls-1 {
        fill: none;
      }

      .cls-2 {
        font-size: 92.7049px;
        fill: #1A1A1A;
        font-family: Poppins-Bold, Poppins;
        font-weight: 700;
      }

      .cls-3 {
        fill: #bbbbba;
      }

      .cls-4 {
        fill: #ececec;
      }
    </style>
  </defs>
  <title>probABly-white</title>
  <rect class="cls-1" width="500" height="174.2106"/>
  <g>
    <text class="cls-2" transform="translate(26.2968 109.6739)">prob</text>
    <text class="cls-2" transform="translate(374.4645 109.6749)">ly</text>
    <g>
      <rect class="cls-3" x="318.1029" y="36.5943" width="11.6967" height="74.3773" rx="1.3963"/>
      <path class="cls-4" d="M283.1068,220.3a26.5225,26.5225,0,1,0,0,53.045H309.63V246.8223A26.523,26.523,0,0,0,283.1068,220.3Zm14.8259,41.349H283.1068a14.8175,14.8175,0,0,1-14.8259-14.8271,15.0211,15.0211,0,0,1,.0868-1.6171,14.7451,14.7451,0,0,1,3.18-7.6668,14.4855,14.4855,0,0,1,1.0753-1.2,14.826,14.826,0,0,1,25.31,10.4835Z" transform="translate(-0.0537 -162.3739)"/>
      <path class="cls-4" d="M344.68,220.3h0a26.5228,26.5228,0,0,0-26.5228,26.5228v26.5229H344.68a26.5228,26.5228,0,0,0,26.5228-26.5228h0A26.5228,26.5228,0,0,0,344.68,220.3Zm14.8261,26.5229A14.8261,14.8261,0,0,1,344.68,261.6488H329.8533V246.8226a14.8261,14.8261,0,0,1,14.8261-14.8261h0a14.8261,14.8261,0,0,1,14.8261,14.8261Z" transform="translate(-0.0537 -162.3739)"/>
    </g>
  </g>
</svg>
